<svg width="139" height="80" viewBox="0 0 139 80" fill="none" xmlns="http://www.w3.org/2000/svg">
<circle cx="39.8648" cy="40.0242" r="39.8648" fill="#E9295A" fill-opacity="0.5"/>
<circle cx="99.0241" cy="39.8648" r="39.8648" fill="#8425CB" fill-opacity="0.5"/>
<path d="M11.0283 47V34.2031H14.4121C15.9062 34.2031 17.0957 34.6777 17.9805 35.627C18.8711 36.5762 19.3252 37.877 19.3428 39.5293V41.6035C19.3428 43.2852 18.8975 44.6064 18.0068 45.5674C17.1221 46.5225 15.9004 47 14.3418 47H11.0283ZM13.6123 36.3564V44.8555H14.3857C15.2471 44.8555 15.8535 44.6299 16.2051 44.1787C16.5566 43.7217 16.7412 42.9365 16.7588 41.8232V39.5996C16.7588 38.4043 16.5918 37.5723 16.2578 37.1035C15.9238 36.6289 15.3555 36.3799 14.5527 36.3564H13.6123ZM23.6934 47H21.1973V37.4902H23.6934V47ZM21.083 35.0293C21.083 34.6426 21.2061 34.3262 21.4521 34.0801C21.6982 33.834 22.0264 33.7109 22.4365 33.7109C22.8467 33.7109 23.1748 33.834 23.4209 34.0801C23.667 34.3262 23.79 34.6426 23.79 35.0293C23.79 35.4102 23.667 35.7266 23.4209 35.9785C23.1807 36.2305 22.8525 36.3564 22.4365 36.3564C22.0205 36.3564 21.6895 36.2305 21.4434 35.9785C21.2031 35.7266 21.083 35.4102 21.083 35.0293ZM30.3115 39.8896L29.4854 39.8193C28.8057 39.8193 28.3457 40.1182 28.1055 40.7158V47H25.6094V37.4902H27.9561L28.0264 38.5186C28.4189 37.7158 28.9609 37.3145 29.6523 37.3145C29.9336 37.3145 30.1621 37.3525 30.3379 37.4287L30.3115 39.8896ZM35.2598 47.1758C33.9824 47.1758 32.9863 46.7949 32.2715 46.0332C31.5566 45.2715 31.1992 44.1816 31.1992 42.7637V42.0078C31.1992 40.5078 31.5273 39.3506 32.1836 38.5361C32.8398 37.7217 33.7803 37.3145 35.0049 37.3145C36.2002 37.3145 37.0996 37.6982 37.7031 38.4658C38.3066 39.2275 38.6143 40.3584 38.626 41.8584V43.0801H33.6777C33.7129 43.7832 33.8682 44.2988 34.1436 44.627C34.4189 44.9492 34.8438 45.1104 35.418 45.1104C36.25 45.1104 36.9443 44.8262 37.501 44.2578L38.4766 45.7607C38.1719 46.1826 37.7295 46.5254 37.1494 46.7891C36.5693 47.0469 35.9395 47.1758 35.2598 47.1758ZM33.6953 41.3398H36.1826V41.1113C36.1709 40.543 36.0771 40.1123 35.9014 39.8193C35.7256 39.5264 35.4209 39.3799 34.9873 39.3799C34.5537 39.3799 34.2373 39.5352 34.0381 39.8457C33.8447 40.1562 33.7305 40.6543 33.6953 41.3398ZM42.6426 47H40.1465V37.4902H42.6426V47ZM40.0322 35.0293C40.0322 34.6426 40.1553 34.3262 40.4014 34.0801C40.6475 33.834 40.9756 33.7109 41.3857 33.7109C41.7959 33.7109 42.124 33.834 42.3701 34.0801C42.6162 34.3262 42.7393 34.6426 42.7393 35.0293C42.7393 35.4102 42.6162 35.7266 42.3701 35.9785C42.1299 36.2305 41.8018 36.3564 41.3857 36.3564C40.9697 36.3564 40.6387 36.2305 40.3926 35.9785C40.1523 35.7266 40.0322 35.4102 40.0322 35.0293ZM47.459 35.1523V37.4902H48.7334V39.3623H47.459V44.082C47.459 44.457 47.5088 44.7148 47.6084 44.8555C47.7139 44.9961 47.9131 45.0664 48.2061 45.0664C48.4463 45.0664 48.6426 45.0459 48.7949 45.0049L48.7773 46.9385C48.3555 47.0967 47.8984 47.1758 47.4062 47.1758C45.8008 47.1758 44.9893 46.2559 44.9717 44.416V39.3623H43.873V37.4902H44.9717V35.1523H47.459ZM49.5508 41.9375C49.5508 40.4961 49.8906 39.3652 50.5703 38.5449C51.25 37.7246 52.1904 37.3145 53.3916 37.3145C54.6045 37.3145 55.5508 37.7246 56.2305 38.5449C56.9102 39.3652 57.25 40.502 57.25 41.9551V42.5615C57.25 44.0088 56.9131 45.1396 56.2393 45.9541C55.5654 46.7686 54.6221 47.1758 53.4092 47.1758C52.1904 47.1758 51.2412 46.7686 50.5615 45.9541C49.8877 45.1338 49.5508 43.9971 49.5508 42.5439V41.9375ZM52.0469 42.5615C52.0469 44.2607 52.501 45.1104 53.4092 45.1104C54.2471 45.1104 54.6982 44.4014 54.7627 42.9834L54.7715 41.9375C54.7715 41.0703 54.6514 40.4287 54.4111 40.0127C54.1709 39.5908 53.8311 39.3799 53.3916 39.3799C52.9697 39.3799 52.6387 39.5908 52.3984 40.0127C52.1641 40.4287 52.0469 41.0703 52.0469 41.9375V42.5615Z" fill="white"/>
<path d="M81.0283 45V32.2031H84.4121C85.9062 32.2031 87.0957 32.6777 87.9805 33.627C88.8711 34.5762 89.3252 35.877 89.3428 37.5293V39.6035C89.3428 41.2852 88.8975 42.6064 88.0068 43.5674C87.1221 44.5225 85.9004 45 84.3418 45H81.0283ZM83.6123 34.3564V42.8555H84.3857C85.2471 42.8555 85.8535 42.6299 86.2051 42.1787C86.5566 41.7217 86.7412 40.9365 86.7588 39.8232V37.5996C86.7588 36.4043 86.5918 35.5723 86.2578 35.1035C85.9238 34.6289 85.3555 34.3799 84.5527 34.3564H83.6123ZM94.9238 45.1758C93.6465 45.1758 92.6504 44.7949 91.9355 44.0332C91.2207 43.2715 90.8633 42.1816 90.8633 40.7637V40.0078C90.8633 38.5078 91.1914 37.3506 91.8477 36.5361C92.5039 35.7217 93.4443 35.3145 94.6689 35.3145C95.8643 35.3145 96.7637 35.6982 97.3672 36.4658C97.9707 37.2275 98.2783 38.3584 98.29 39.8584V41.0801H93.3418C93.377 41.7832 93.5322 42.2988 93.8076 42.627C94.083 42.9492 94.5078 43.1104 95.082 43.1104C95.9141 43.1104 96.6084 42.8262 97.165 42.2578L98.1406 43.7607C97.8359 44.1826 97.3936 44.5254 96.8135 44.7891C96.2334 45.0469 95.6035 45.1758 94.9238 45.1758ZM93.3594 39.3398H95.8467V39.1113C95.835 38.543 95.7412 38.1123 95.5654 37.8193C95.3896 37.5264 95.085 37.3799 94.6514 37.3799C94.2178 37.3799 93.9014 37.5352 93.7021 37.8457C93.5088 38.1562 93.3945 38.6543 93.3594 39.3398ZM103.906 42.4512C103.906 42.2402 103.804 42.0469 103.599 41.8711C103.399 41.6895 102.951 41.4463 102.254 41.1416C101.229 40.7256 100.522 40.2949 100.136 39.8496C99.7549 39.4043 99.5645 38.8506 99.5645 38.1885C99.5645 37.3564 99.8633 36.6709 100.461 36.1318C101.064 35.5869 101.861 35.3145 102.852 35.3145C103.895 35.3145 104.729 35.584 105.356 36.123C105.983 36.6621 106.297 37.3857 106.297 38.2939H103.81C103.81 37.5205 103.487 37.1338 102.843 37.1338C102.579 37.1338 102.362 37.2158 102.192 37.3799C102.022 37.5439 101.938 37.7725 101.938 38.0654C101.938 38.2764 102.031 38.4639 102.219 38.6279C102.406 38.7861 102.849 39.0146 103.546 39.3135C104.56 39.6885 105.274 40.1074 105.69 40.5703C106.112 41.0273 106.323 41.6221 106.323 42.3545C106.323 43.2041 106.004 43.8867 105.365 44.4023C104.727 44.918 103.889 45.1758 102.852 45.1758C102.154 45.1758 101.539 45.041 101.006 44.7715C100.473 44.4961 100.054 44.1152 99.749 43.6289C99.4502 43.1426 99.3008 42.6182 99.3008 42.0557H101.665C101.677 42.4893 101.776 42.8145 101.964 43.0312C102.157 43.248 102.471 43.3564 102.904 43.3564C103.572 43.3564 103.906 43.0547 103.906 42.4512ZM110.48 45H107.984V35.4902H110.48V45ZM107.87 33.0293C107.87 32.6426 107.993 32.3262 108.239 32.0801C108.485 31.834 108.813 31.7109 109.224 31.7109C109.634 31.7109 109.962 31.834 110.208 32.0801C110.454 32.3262 110.577 32.6426 110.577 33.0293C110.577 33.4102 110.454 33.7266 110.208 33.9785C109.968 34.2305 109.64 34.3564 109.224 34.3564C108.808 34.3564 108.477 34.2305 108.23 33.9785C107.99 33.7266 107.87 33.4102 107.87 33.0293ZM112.106 39.9551C112.106 38.3965 112.388 37.2334 112.95 36.4658C113.513 35.6982 114.301 35.3145 115.314 35.3145C116.176 35.3145 116.841 35.6543 117.31 36.334L117.406 35.4902H119.647V45C119.647 46.2129 119.308 47.1387 118.628 47.7773C117.948 48.4219 116.973 48.7441 115.701 48.7441C115.18 48.7441 114.632 48.6387 114.058 48.4277C113.483 48.2227 113.056 47.959 112.774 47.6367L113.609 45.9141C113.844 46.1602 114.148 46.3594 114.523 46.5117C114.898 46.6699 115.253 46.749 115.587 46.749C116.144 46.749 116.542 46.6143 116.782 46.3447C117.028 46.0811 117.154 45.6533 117.16 45.0615V44.2441C116.686 44.8652 116.067 45.1758 115.306 45.1758C114.292 45.1758 113.507 44.7832 112.95 43.998C112.399 43.207 112.118 42.0938 112.106 40.6582V39.9551ZM114.594 40.5791C114.594 41.458 114.708 42.0996 114.937 42.5039C115.165 42.9023 115.528 43.1016 116.026 43.1016C116.536 43.1016 116.914 42.917 117.16 42.5479V38.0039C116.902 37.5996 116.53 37.3975 116.044 37.3975C115.552 37.3975 115.186 37.5996 114.945 38.0039C114.711 38.4082 114.594 39.0586 114.594 39.9551V40.5791ZM123.734 35.4902L123.805 36.4307C124.367 35.6865 125.103 35.3145 126.011 35.3145C127.646 35.3145 128.486 36.46 128.533 38.751V45H126.037V38.9355C126.037 38.3965 125.955 38.0068 125.791 37.7666C125.633 37.5205 125.352 37.3975 124.947 37.3975C124.496 37.3975 124.145 37.6289 123.893 38.0918V45H121.396V35.4902H123.734Z" fill="white"/>
</svg>
