<svg width="29" height="23" viewBox="0 0 29 23" fill="none" xmlns="http://www.w3.org/2000/svg">
<path d="M28.4404 10.3897L19.8602 0.61244C19.3367 0.0159054 18.4876 0.0159054 17.9641 0.61244C17.4405 1.2091 17.4405 2.17631 17.9641 2.77297L24.2557 9.94226H1.34066C0.600296 9.94226 0 10.6263 0 11.47C0 12.3135 0.600296 12.9977 1.34066 12.9977H24.2557L17.9644 20.1669C17.4407 20.7636 17.4407 21.7308 17.9644 22.3275C18.2261 22.6256 18.5693 22.7749 18.9124 22.7749C19.2555 22.7749 19.5986 22.6256 19.8604 22.3275L28.4404 12.5502C28.964 11.9536 28.964 10.9863 28.4404 10.3897Z" fill="#E9295A"/>
</svg>
