<svg width="80" height="25" viewBox="0 0 80 25" fill="none" xmlns="http://www.w3.org/2000/svg">
<path fill-rule="evenodd" clip-rule="evenodd" d="M4.58848 19.6356V2.2852C4.58848 1.02312 3.56131 0 2.29424 0C1.02717 0 0 1.02312 0 2.2852V19.139C0 21.9394 2.27912 24.2094 5.09062 24.2094H12.4091C12.1569 21.6419 9.9835 19.6356 7.33962 19.6356H4.58848ZM12.3542 4.6783L12.8414 4.6639C15.4132 4.5879 17.5062 2.61137 17.7535 0.0957729H12.779L12.7023 0.0980491C9.97192 0.178992 7.78323 2.40942 7.78323 5.14886L7.78323 13.4787C7.78323 14.736 8.80647 15.7552 10.0687 15.7552C11.3309 15.7552 12.3542 14.736 12.3542 13.4787V4.6783ZM22.9992 0H24.5747V5.52413H27.9884V6.80791H22.9992V0ZM35.1125 5.54358V6.80791H29.8413V0H34.9861V1.26433H31.4071V2.74261H34.5679V3.96804H31.4071V5.54358H35.1125ZM38.9142 0H37.3387V6.80791H38.9142V0ZM42.9127 1.28378H40.7341V0H46.6667V1.28378H44.4882V6.80791H42.9127V1.28378ZM49.1219 6.11739C49.6665 6.65554 50.4251 6.92461 51.3977 6.92461C52.3703 6.92461 53.1256 6.65554 53.6638 6.11739C54.2084 5.57924 54.4807 4.81092 54.4807 3.81243V0H52.9246V3.75407C52.9246 4.383 52.7949 4.84658 52.5356 5.14483C52.2762 5.4366 51.9002 5.58248 51.4074 5.58248C50.396 5.58248 49.8902 4.97301 49.8902 3.75407V0H48.3147V3.81243C48.3147 4.81092 48.5838 5.57924 49.1219 6.11739ZM63.254 0V6.80791H61.9605L58.5663 2.67454V6.80791H57.0102V0H58.3134L61.6979 4.13337V0H63.254ZM71.1086 6.80791V5.54358H67.4031V3.96804H70.5639V2.74261H67.4031V1.26433H70.9821V0H65.8373V6.80791H71.1086ZM46.5216 22.3286C46.5216 22.585 46.481 22.8207 46.3998 23.0357C46.3186 23.2491 46.2039 23.433 46.0558 23.5875C45.9077 23.742 45.7294 23.8622 45.5207 23.9482C45.3137 24.0326 45.0844 24.0748 44.8328 24.0748C44.5812 24.0748 44.3519 24.0326 44.1449 23.9482C43.9378 23.8622 43.7603 23.742 43.6122 23.5875C43.4641 23.433 43.3494 23.2491 43.2682 23.0357C43.187 22.8207 43.1464 22.585 43.1464 22.3286C43.1464 22.0723 43.187 21.8374 43.2682 21.624C43.3494 21.409 43.4641 21.2243 43.6122 21.0698C43.7603 20.9137 43.9378 20.7927 44.1449 20.7067C44.3519 20.6207 44.5812 20.5777 44.8328 20.5777C45.0844 20.5777 45.3137 20.6207 45.5207 20.7067C45.7294 20.7927 45.9077 20.9137 46.0558 21.0698C46.2039 21.2243 46.3186 21.409 46.3998 21.624C46.481 21.8374 46.5216 22.0723 46.5216 22.3286ZM46.0463 22.3286C46.0463 22.1184 46.0176 21.9297 45.9603 21.7625C45.9029 21.5953 45.8217 21.4544 45.7166 21.3397C45.6115 21.2235 45.4841 21.1343 45.3344 21.0722C45.1847 21.0101 45.0175 20.979 44.8328 20.979C44.6497 20.979 44.4833 21.0101 44.3336 21.0722C44.1839 21.1343 44.0557 21.2235 43.949 21.3397C43.8439 21.4544 43.7627 21.5953 43.7053 21.7625C43.648 21.9297 43.6193 22.1184 43.6193 22.3286C43.6193 22.5388 43.648 22.7276 43.7053 22.8948C43.7627 23.0604 43.8439 23.2013 43.949 23.3176C44.0557 23.4322 44.1839 23.5206 44.3336 23.5827C44.4833 23.6432 44.6497 23.6735 44.8328 23.6735C45.0175 23.6735 45.1847 23.6432 45.3344 23.5827C45.4841 23.5206 45.6115 23.4322 45.7166 23.3176C45.8217 23.2013 45.9029 23.0604 45.9603 22.8948C46.0176 22.7276 46.0463 22.5388 46.0463 22.3286ZM25.2396 22.7682L24.7021 21.3756C24.6862 21.3342 24.6695 21.2864 24.652 21.2322C24.6345 21.1765 24.6177 21.1176 24.6018 21.0555C24.5684 21.1845 24.5341 21.292 24.4991 21.3779L23.9617 22.7682H25.2396ZM26.2046 24.0389H25.8463C25.8049 24.0389 25.7715 24.0286 25.746 24.0079C25.7205 23.9872 25.7014 23.9609 25.6887 23.9291L25.3686 23.1026H23.8327L23.5126 23.9291C23.503 23.9577 23.4847 23.9832 23.4576 24.0055C23.4306 24.0278 23.3971 24.0389 23.3573 24.0389H22.999L24.3677 20.616H24.8359L26.2046 24.0389ZM32.9659 22.3286C32.9659 22.585 32.9253 22.8183 32.844 23.0285C32.7628 23.2387 32.6482 23.4187 32.5001 23.5684C32.352 23.7181 32.1736 23.8343 31.965 23.9171C31.758 23.9983 31.5287 24.0389 31.2771 24.0389H29.9991V20.616H31.2771C31.5287 20.616 31.758 20.6574 31.965 20.7402C32.1736 20.8214 32.352 20.9376 32.5001 21.0889C32.6482 21.2386 32.7628 21.4186 32.844 21.6288C32.9253 21.839 32.9659 22.0723 32.9659 22.3286ZM32.4905 22.3286C32.4905 22.1184 32.4618 21.9305 32.4045 21.7649C32.3472 21.5993 32.266 21.4592 32.1609 21.3445C32.0558 21.2298 31.9284 21.1423 31.7787 21.0817C31.629 21.0212 31.4618 20.991 31.2771 20.991H30.4625V23.6639H31.2771C31.4618 23.6639 31.629 23.6337 31.7787 23.5732C31.9284 23.5126 32.0558 23.4258 32.1609 23.3128C32.266 23.1981 32.3472 23.058 32.4045 22.8924C32.4618 22.7268 32.4905 22.5388 32.4905 22.3286ZM38.2628 24.0389L39.6578 20.616H39.2876C39.2478 20.616 39.2135 20.6279 39.1849 20.6518C39.1578 20.6741 39.1395 20.6988 39.1299 20.7258L38.1673 23.1408C38.1466 23.1949 38.1275 23.2539 38.1099 23.3176C38.0924 23.3813 38.0757 23.4481 38.0598 23.5182C38.0439 23.4481 38.0255 23.3813 38.0048 23.3176C37.9857 23.2539 37.9658 23.1949 37.9451 23.1408L36.9801 20.7258C36.9674 20.694 36.9482 20.6677 36.9228 20.647C36.8973 20.6263 36.8638 20.616 36.8224 20.616H36.4522L37.8472 24.0389H38.2628ZM53.3092 23.7069V22.3931H52.2582V22.6559C52.2582 22.6814 52.267 22.7029 52.2845 22.7204C52.3036 22.7379 52.3283 22.7467 52.3585 22.7467H52.8912V23.4991C52.7734 23.5628 52.6523 23.613 52.5281 23.6496C52.4055 23.6846 52.2646 23.7021 52.1053 23.7021C51.9031 23.7021 51.7207 23.6711 51.5583 23.609C51.3959 23.5469 51.2573 23.4569 51.1427 23.3391C51.0296 23.2196 50.942 23.0755 50.8799 22.9067C50.8194 22.7363 50.7892 22.5436 50.7892 22.3286C50.7892 22.1216 50.8186 21.9353 50.8775 21.7697C50.9365 21.6025 51.0209 21.4608 51.1307 21.3445C51.2406 21.2267 51.3736 21.1367 51.5296 21.0746C51.6857 21.0109 51.8601 20.979 52.0528 20.979C52.1849 20.979 52.2988 20.9894 52.3944 21.0101C52.4915 21.0308 52.5751 21.0563 52.6452 21.0865C52.7168 21.1152 52.7773 21.1454 52.8267 21.1773C52.8761 21.2091 52.9199 21.2362 52.9581 21.2585C52.9979 21.2824 53.0337 21.2904 53.0656 21.2824C53.099 21.2728 53.1261 21.2521 53.1468 21.2203L53.2782 21.0101C53.2049 20.9432 53.1261 20.8835 53.0417 20.8309C52.9573 20.7768 52.8657 20.7314 52.767 20.6948C52.6683 20.6566 52.5608 20.6279 52.4445 20.6088C52.3283 20.5881 52.2025 20.5777 52.0671 20.5777C51.7996 20.5777 51.5575 20.6199 51.3409 20.7043C51.1244 20.7887 50.9404 20.9082 50.7892 21.0626C50.6379 21.2155 50.5208 21.3994 50.438 21.6144C50.3568 21.8294 50.3162 22.0675 50.3162 22.3286C50.3162 22.5866 50.3584 22.8231 50.4428 23.0381C50.5272 23.2531 50.6474 23.4378 50.8035 23.5923C50.9611 23.7451 51.1506 23.8646 51.372 23.9506C51.5933 24.035 51.8418 24.0772 52.1173 24.0772C52.3498 24.0772 52.5632 24.0469 52.7574 23.9864C52.9533 23.9243 53.1372 23.8311 53.3092 23.7069ZM59.1525 22.7682L58.615 21.3756C58.5991 21.3342 58.5824 21.2864 58.5649 21.2322C58.5474 21.1765 58.5306 21.1176 58.5147 21.0555C58.4813 21.1845 58.447 21.292 58.412 21.3779L57.8745 22.7682H59.1525ZM60.1175 24.0389H59.7592C59.7178 24.0389 59.6844 24.0286 59.6589 24.0079C59.6334 23.9872 59.6143 23.9609 59.6016 23.9291L59.2815 23.1026H57.7455L57.4255 23.9291C57.4159 23.9577 57.3976 23.9832 57.3705 24.0055C57.3435 24.0278 57.31 24.0389 57.2702 24.0389H56.9119L58.2806 20.616H58.7488L60.1175 24.0389ZM66.7569 23.0285C66.8381 22.8183 66.8787 22.585 66.8787 22.3286C66.8787 22.0723 66.8381 21.839 66.7569 21.6288C66.6757 21.4186 66.561 21.2386 66.4129 21.0889C66.2648 20.9376 66.0865 20.8214 65.8779 20.7402C65.6709 20.6574 65.4415 20.616 65.1899 20.616H63.912V24.0389H65.1899C65.4415 24.0389 65.6709 23.9983 65.8779 23.9171C66.0865 23.8343 66.2648 23.7181 66.4129 23.5684C66.561 23.4187 66.6757 23.2387 66.7569 23.0285ZM66.3174 21.7649C66.3747 21.9305 66.4034 22.1184 66.4034 22.3286C66.4034 22.5388 66.3747 22.7268 66.3174 22.8924C66.2601 23.058 66.1789 23.1981 66.0738 23.3128C65.9687 23.4258 65.8412 23.5126 65.6916 23.5732C65.5419 23.6337 65.3747 23.6639 65.1899 23.6639H64.3754V20.991H65.1899C65.3747 20.991 65.5419 21.0212 65.6916 21.0817C65.8412 21.1423 65.9687 21.2298 66.0738 21.3445C66.1789 21.4592 66.2601 21.5993 66.3174 21.7649ZM74.0531 22.3286C74.0531 22.585 74.0125 22.8207 73.9313 23.0357C73.8501 23.2491 73.7354 23.433 73.5873 23.5875C73.4392 23.742 73.2609 23.8622 73.0523 23.9482C72.8453 24.0326 72.6159 24.0748 72.3643 24.0748C72.1127 24.0748 71.8834 24.0326 71.6764 23.9482C71.4694 23.8622 71.2918 23.742 71.1437 23.5875C70.9956 23.433 70.881 23.2491 70.7997 23.0357C70.7185 22.8207 70.6779 22.585 70.6779 22.3286C70.6779 22.0723 70.7185 21.8374 70.7997 21.624C70.881 21.409 70.9956 21.2243 71.1437 21.0698C71.2918 20.9137 71.4694 20.7927 71.6764 20.7067C71.8834 20.6207 72.1127 20.5777 72.3643 20.5777C72.6159 20.5777 72.8453 20.6207 73.0523 20.7067C73.2609 20.7927 73.4392 20.9137 73.5873 21.0698C73.7354 21.2243 73.8501 21.409 73.9313 21.624C74.0125 21.8374 74.0531 22.0723 74.0531 22.3286ZM73.5778 22.3286C73.5778 22.1184 73.5491 21.9297 73.4918 21.7625C73.4345 21.5953 73.3532 21.4544 73.2481 21.3397C73.1431 21.2235 73.0156 21.1343 72.866 21.0722C72.7163 21.0101 72.5491 20.979 72.3643 20.979C72.1812 20.979 72.0148 21.0101 71.8651 21.0722C71.7154 21.1343 71.5872 21.2235 71.4805 21.3397C71.3754 21.4544 71.2942 21.5953 71.2369 21.7625C71.1795 21.9297 71.1509 22.1184 71.1509 22.3286C71.1509 22.5388 71.1795 22.7276 71.2369 22.8948C71.2942 23.0604 71.3754 23.2013 71.4805 23.3176C71.5872 23.4322 71.7154 23.5206 71.8651 23.5827C72.0148 23.6432 72.1812 23.6735 72.3643 23.6735C72.5491 23.6735 72.7163 23.6432 72.866 23.5827C73.0156 23.5206 73.1431 23.4322 73.2481 23.3176C73.3532 23.2013 73.4345 23.0604 73.4918 22.8948C73.5491 22.7276 73.5778 22.5388 73.5778 22.3286ZM79.7635 21.206C79.781 21.1932 79.7969 21.1749 79.8112 21.151L79.9235 20.9313C79.8041 20.8166 79.6655 20.729 79.5079 20.6685C79.3518 20.608 79.1782 20.5777 78.9871 20.5777C78.8167 20.5777 78.6655 20.604 78.5333 20.6566C78.4027 20.7091 78.292 20.7792 78.2013 20.8668C78.1121 20.9543 78.0436 21.0547 77.9958 21.1677C77.9496 21.2808 77.9266 21.3979 77.9266 21.5189C77.9266 21.6702 77.9496 21.7976 77.9958 21.9011C78.0436 22.003 78.1057 22.0882 78.1821 22.1567C78.2586 22.2251 78.3462 22.2809 78.4449 22.3239C78.5436 22.3669 78.644 22.4051 78.7459 22.4385C78.8478 22.4704 78.9481 22.5022 79.0468 22.5341C79.1456 22.5643 79.2332 22.6018 79.3096 22.6463C79.386 22.6909 79.4473 22.7467 79.4935 22.8135C79.5413 22.8788 79.5652 22.9632 79.5652 23.0667C79.5652 23.1607 79.5493 23.2459 79.5174 23.3223C79.4856 23.3988 79.4394 23.4649 79.3789 23.5206C79.32 23.5747 79.2475 23.6169 79.1615 23.6472C79.0755 23.6775 78.9776 23.6926 78.8677 23.6926C78.7801 23.6926 78.7013 23.6846 78.6312 23.6687C78.5611 23.6512 78.4982 23.6297 78.4425 23.6042C78.3884 23.5787 78.3398 23.5509 78.2968 23.5206C78.2538 23.4903 78.2156 23.4625 78.1821 23.437C78.1487 23.4115 78.1184 23.3908 78.0914 23.3749C78.0659 23.3574 78.0428 23.3486 78.0221 23.3486C77.9998 23.3486 77.9791 23.355 77.96 23.3677C77.9425 23.3789 77.9274 23.3932 77.9146 23.4107L77.7808 23.6305C77.9098 23.7674 78.0651 23.8765 78.2466 23.9577C78.4282 24.0374 78.6304 24.0772 78.8534 24.0772C79.0349 24.0772 79.1965 24.0493 79.3383 23.9936C79.4816 23.9378 79.6018 23.8614 79.699 23.7642C79.7977 23.6671 79.8725 23.5532 79.9235 23.4227C79.9745 23.2905 79.9999 23.1496 79.9999 22.9999C79.9999 22.8581 79.9761 22.7387 79.9283 22.6416C79.8821 22.5444 79.82 22.4624 79.742 22.3955C79.6655 22.3286 79.5779 22.2737 79.4792 22.2307C79.3821 22.1861 79.2817 22.1463 79.1782 22.1113C79.0763 22.0762 78.976 22.0428 78.8773 22.0109C78.7801 21.9775 78.6925 21.9385 78.6145 21.8939C78.5381 21.8493 78.476 21.796 78.4282 21.7339C78.382 21.6702 78.3589 21.5905 78.3589 21.495C78.3589 21.4201 78.3724 21.3509 78.3995 21.2872C78.4266 21.2219 78.4664 21.1654 78.519 21.1176C78.5731 21.0698 78.6392 21.0324 78.7172 21.0053C78.7968 20.9766 78.8884 20.9623 78.9919 20.9623C79.1018 20.9623 79.1949 20.9758 79.2714 21.0029C79.3494 21.03 79.4155 21.0602 79.4697 21.0937C79.5254 21.1255 79.5716 21.155 79.6082 21.1821C79.6448 21.2091 79.6767 21.2227 79.7037 21.2227C79.7276 21.2227 79.7475 21.2171 79.7635 21.206ZM56.8736 13.5574H55.4342V15.5512C55.0711 15.7457 54.6627 15.8429 54.2088 15.8429C53.7809 15.8429 53.3983 15.7522 53.0612 15.5706C52.7305 15.3826 52.4711 15.1232 52.2831 14.7926C52.0951 14.4619 52.0011 14.0859 52.0011 13.6644C52.0011 13.2365 52.0951 12.8572 52.2831 12.5265C52.4711 12.1958 52.7337 11.9397 53.0709 11.7582C53.4081 11.5767 53.7938 11.4859 54.2282 11.4859C54.9155 11.4859 55.5023 11.742 55.9886 12.2542L57 11.3205C56.6694 10.938 56.2609 10.6462 55.7746 10.4452C55.2883 10.2442 54.7469 10.1438 54.1504 10.1438C53.4372 10.1438 52.7953 10.2961 52.2248 10.6009C51.6542 10.8991 51.2068 11.3173 50.8826 11.8555C50.5649 12.3871 50.4061 12.9901 50.4061 13.6644C50.4061 14.3387 50.5649 14.9449 50.8826 15.4831C51.2068 16.0148 51.651 16.433 52.215 16.7377C52.7791 17.0359 53.4145 17.1851 54.1213 17.1851C54.614 17.1851 55.1035 17.1105 55.5898 16.9614C56.0761 16.8123 56.504 16.5983 56.8736 16.3195V13.5574ZM27.8715 16.4265L28.6885 17.1851L29.5152 16.2222L28.7177 15.4831C29.0029 15.0552 29.2104 14.5397 29.3401 13.9367L28.1244 13.5574C28.0466 13.9529 27.9331 14.3063 27.784 14.6175L26.5391 13.4602C27.006 13.2073 27.3431 12.9447 27.5506 12.6724C27.7645 12.4001 27.8715 12.0889 27.8715 11.7387C27.8715 11.259 27.6932 10.8797 27.3366 10.6009C26.98 10.3156 26.5067 10.1729 25.9167 10.1729C25.4953 10.1729 25.1224 10.2442 24.7982 10.3869C24.4805 10.523 24.2342 10.7176 24.0591 10.9704C23.884 11.2233 23.7965 11.5151 23.7965 11.8457C23.7965 12.0921 23.8516 12.332 23.9618 12.5654C24.0721 12.7924 24.2504 13.0322 24.4967 13.2851C23.9716 13.5769 23.589 13.8849 23.3491 14.209C23.1157 14.5267 22.999 14.8963 22.999 15.3178C22.999 15.6744 23.1092 15.9953 23.3297 16.2806C23.5566 16.5659 23.8678 16.7896 24.2633 16.9517C24.6588 17.1073 25.103 17.1851 25.5957 17.1851C26.4646 17.1851 27.2232 16.9322 27.8715 16.4265ZM25.3721 11.3789C25.5082 11.2622 25.6898 11.2038 25.9167 11.2038C26.1307 11.2038 26.296 11.2557 26.4127 11.3594C26.5294 11.4632 26.5878 11.5993 26.5878 11.7679C26.5878 11.93 26.5229 12.0824 26.3932 12.225C26.2636 12.3612 26.0334 12.5168 25.7027 12.6919C25.4952 12.4909 25.3558 12.332 25.2845 12.2153C25.2132 12.0921 25.1775 11.9624 25.1775 11.8263C25.1775 11.6447 25.2424 11.4956 25.3721 11.3789ZM26.9768 15.5998C26.6007 15.8656 26.176 15.9986 25.7027 15.9986C25.3332 15.9986 25.0381 15.9207 24.8177 15.7651C24.5973 15.6095 24.487 15.4053 24.487 15.1524C24.487 14.9385 24.5519 14.7472 24.6815 14.5786C24.8112 14.41 25.0284 14.2382 25.3332 14.0632L26.9768 15.5998ZM38.2559 15.1719L39.5689 17.0684H41.2612L39.7342 14.8801C40.1816 14.6856 40.5253 14.4068 40.7652 14.0437C41.0115 13.6741 41.1347 13.2365 41.1347 12.7308C41.1347 12.225 41.0148 11.7874 40.7749 11.4178C40.535 11.0482 40.1913 10.7629 39.744 10.5619C39.3031 10.361 38.7811 10.2605 38.1781 10.2605H35.2313V17.0684H36.8068V15.1719H38.2559ZM38.0906 11.5442C38.5639 11.5442 38.9238 11.648 39.1702 11.8555C39.4165 12.0564 39.5397 12.3482 39.5397 12.7308C39.5397 13.1068 39.4165 13.3986 39.1702 13.6061C38.9238 13.8135 38.5639 13.9173 38.0906 13.9173H36.8068V11.5442H38.0906ZM48.6268 15.804V17.0684H43.3556V10.2605H48.5004V11.5248H44.9214V13.0031H48.0822V14.2285H44.9214V15.804H48.6268ZM62.3344 17.1851C61.3618 17.1851 60.6032 16.916 60.0586 16.3778C59.5204 15.8397 59.2514 15.0714 59.2514 14.0729V10.2605H60.8269V14.0145C60.8269 15.2335 61.3326 15.8429 62.3441 15.8429C62.8368 15.8429 63.2129 15.6971 63.4722 15.4053C63.7316 15.107 63.8613 14.6435 63.8613 14.0145V10.2605H65.4174V14.0729C65.4174 15.0714 65.1451 15.8397 64.6004 16.3778C64.0623 16.916 63.3069 17.1851 62.3344 17.1851ZM69.5224 10.2605H67.9469V17.0684H72.9361V15.7846H69.5224V10.2605ZM77.3539 14.6564V17.0684H75.7784V14.637L73.1427 10.2605H74.8155L76.6342 13.2851L78.4529 10.2605H79.9993L77.3539 14.6564Z" fill="black"/>
</svg>
